<svg width="418" height="238" viewBox="0 0 418 238" fill="none" xmlns="http://www.w3.org/2000/svg">
<path d="M32.7458 43.9514C30.2909 46.4064 26.8856 47.9506 23.124 47.9506C15.6008 47.9506 9.50302 41.8528 9.50302 34.3296C9.50302 26.8064 15.6008 20.7086 23.124 20.7086C24.9454 20.7086 26.6876 21.065 28.2715 21.6985L31.9143 13.027C29.1822 11.9183 26.2125 11.2848 23.0844 11.2848C10.3345 11.2848 0 21.6193 0 34.3692C0 47.1191 10.3345 57.4536 23.0844 57.4536C29.3406 57.4536 35.0424 54.9591 39.2 50.9203L32.7458 43.9514Z" fill="#7F7F7F"/>
<path d="M103.86 29.103C101.484 18.8477 92.3377 11.2452 81.3696 11.2452C68.6197 11.2452 58.2852 21.5798 58.2852 34.3297C58.2852 38.9624 59.6315 43.2783 62.0072 46.8816L103.86 29.103ZM91.031 43.9119C88.5761 46.3668 85.1708 47.9111 81.4092 47.9111C78.7167 47.9111 76.1826 47.1191 74.084 45.7729L68.9761 53.7713C72.5397 56.0678 76.8161 57.3745 81.3696 57.3745C87.6258 57.3745 93.3276 54.8799 97.4852 50.8016L91.031 43.9119ZM67.8674 35.8343C67.8278 35.3196 67.7882 34.8048 67.7882 34.2901C67.7882 26.7668 73.886 20.6691 81.4092 20.6691C85.5272 20.6691 89.2492 22.5301 91.7438 25.4206L67.8674 35.8343Z" fill="#7F7F7F"/>
<path d="M158.265 44.3474C155.85 46.5648 152.642 47.9111 149.079 47.9111C141.555 47.9111 135.458 41.8133 135.458 34.2901C135.458 32.1915 135.933 30.2513 136.764 28.4695L128.212 24.3119C126.747 27.3212 125.955 30.7264 125.955 34.2901C125.955 47.0399 136.289 57.3745 149.039 57.3745C155.058 57.3745 160.522 55.0779 164.6 51.3163L158.265 44.3474Z" fill="#7F7F7F"/>
<path d="M35.9531 24.5495L39.4771 15.7988L46.8024 18.8081C46.8024 18.8081 52.3854 20.8671 52.3854 27.5984V56.7014H43.5555V27.836L35.9531 24.5495Z" fill="#7F7F7F"/>
<path d="M124.569 48.6238L121.045 57.3745L113.72 54.3652C113.72 54.3652 108.136 52.3062 108.136 45.5749V0.752319H116.966V45.2977L124.569 48.6238Z" fill="#7F7F7F"/>
<path d="M139.853 24.2328C142.268 22.0154 145.475 20.6692 149.039 20.6692C156.562 20.6692 162.66 26.7669 162.66 34.2902C162.66 36.3887 162.185 38.3289 161.353 40.1108L169.866 44.2287C171.332 41.2194 172.123 37.8142 172.123 34.2506C172.123 21.5007 161.789 11.1661 149.039 11.1661C143.02 11.1661 137.556 13.4627 133.478 17.2243L139.853 24.2328Z" fill="#BBBBBB"/>
<path d="M47.9506 12.8291C51.4933 12.8291 54.3652 9.95719 54.3652 6.41454C54.3652 2.87189 51.4933 0 47.9506 0C44.408 0 41.5361 2.87189 41.5361 6.41454C41.5361 9.95719 44.408 12.8291 47.9506 12.8291Z" fill="#BBBBBB"/>
<path fill-rule="evenodd" clip-rule="evenodd" d="M378.906 108.542C378.906 110.282 377.495 111.692 375.756 111.692C374.016 111.692 372.606 110.282 372.606 108.542C372.606 106.802 374.016 105.392 375.756 105.392C377.495 105.392 378.906 106.802 378.906 108.542ZM231.494 151.045C231.494 166.021 243.753 178.28 258.852 178.28C273.829 178.28 286.211 166.145 286.211 151.045C286.211 135.945 273.952 123.686 258.852 123.686C243.753 123.686 231.494 136.069 231.494 151.045ZM244.802 151.045C244.802 143.263 251.071 136.995 258.852 136.995C266.634 136.995 272.902 143.263 272.902 151.045C272.902 158.826 266.634 165.095 258.852 165.095C251.071 165.095 244.802 158.826 244.802 151.045ZM301.62 140.145H297.636V154.04C297.636 157.035 298.408 159.29 299.891 161.081C301.373 162.717 303.627 163.613 306.468 163.613C307.363 163.613 308.104 163.458 308.846 163.304C309.587 163.149 310.204 162.872 310.791 162.563C311.157 162.37 311.463 162.13 311.753 161.901C311.929 161.763 312.099 161.629 312.273 161.513L313.323 160.463V161.822C313.323 162.594 313.941 163.18 314.682 163.18H318.881V140.145H313.045V152.558C313.045 153.453 312.891 154.195 312.582 154.936C312.273 155.677 311.841 156.294 311.378 156.881C310.945 157.499 310.328 157.931 309.587 158.24C308.815 158.549 308.074 158.703 307.332 158.703C305.974 158.703 304.924 158.24 304.183 157.499C303.442 156.603 302.979 155.553 302.979 154.071V141.503C302.979 140.731 302.361 140.145 301.62 140.145ZM324.81 140.145H320.61H320.425V161.976C320.425 162.748 321.043 163.335 321.784 163.335H326.261V150.767C326.261 149.872 326.416 149.13 326.725 148.389C327.033 147.648 327.466 147.031 327.929 146.444C328.361 145.826 328.979 145.394 329.72 145.085C330.492 144.776 331.233 144.622 331.974 144.622C333.178 144.622 334.228 145.085 334.815 145.981C335.556 146.876 336.019 147.926 336.019 149.408V161.945C336.019 162.717 336.637 163.304 337.378 163.304H341.855V149.254C341.855 146.259 341.083 144.004 339.601 142.214C338.119 140.577 335.865 139.681 333.024 139.681C332.128 139.681 331.387 139.836 330.646 139.99L330.646 139.99C329.905 140.145 329.287 140.423 328.701 140.731C328.335 140.924 328.029 141.165 327.738 141.393C327.563 141.531 327.393 141.665 327.219 141.781L326.169 142.831V141.503C326.169 140.731 325.551 140.145 324.81 140.145ZM348.124 140.145H343.646V161.822C343.646 162.594 344.264 163.18 345.005 163.18H349.482V141.503C349.482 140.731 348.865 140.145 348.124 140.145ZM366.682 161.976L367.732 160.926V161.822C367.732 162.594 368.349 163.18 369.091 163.18H373.414V131.776C373.414 131.004 372.796 130.418 372.055 130.418H367.577V140.762C367.114 140.608 366.682 140.453 366.373 140.299C366.198 140.211 366.032 140.173 365.837 140.129C365.689 140.095 365.523 140.057 365.323 139.99C365.092 139.99 364.868 139.952 364.644 139.913C364.42 139.874 364.196 139.836 363.965 139.836H362.174C361.587 139.836 360.969 139.836 360.228 139.99C359.487 140.145 358.592 140.423 357.851 140.731C357.558 140.914 357.241 141.073 356.92 141.234C356.426 141.482 355.921 141.735 355.473 142.09C354.732 142.553 353.96 143.294 353.373 144.035C352.632 144.931 352.014 146.104 351.428 147.463C350.995 148.822 350.687 150.458 350.687 152.249C350.687 154.195 350.995 155.862 351.582 157.344C352.045 158.826 352.941 160.031 353.836 161.081C354.886 161.976 355.936 162.748 357.14 163.335C358.345 163.767 359.672 164.076 360.877 164.076C361.772 164.076 362.513 163.921 363.254 163.767C363.995 163.613 364.613 163.335 365.2 163.026C365.566 162.833 365.872 162.593 366.162 162.364C366.338 162.226 366.508 162.092 366.682 161.976ZM365.786 145.085C366.528 145.24 367.145 145.518 367.732 145.981L367.67 152.867C367.67 153.514 367.552 154.067 367.42 154.69C367.401 154.78 367.381 154.872 367.361 154.967C367.207 155.708 366.929 156.325 366.466 156.912C366.033 157.499 365.57 157.931 364.829 158.394C364.088 158.826 363.347 158.981 362.297 158.981C360.352 158.981 359.024 158.394 357.974 157.035C356.955 155.677 356.492 154.04 356.492 152.095C356.492 151.199 356.646 150.304 356.955 149.408C357.264 148.513 357.696 147.741 358.159 147.154C358.746 146.413 359.364 145.826 360.105 145.363C360.846 144.931 361.741 144.776 362.946 144.776C364.15 144.776 365.045 144.931 365.786 145.085ZM387.309 163.026C388.513 162.563 389.563 161.822 390.15 161.081V161.636C390.15 162.408 390.768 162.995 391.509 162.995H395.986V147.432C395.986 146.104 395.708 145.054 395.245 144.004C394.782 142.955 394.195 142.059 393.3 141.318C392.404 140.577 391.354 139.99 390.15 139.527C388.946 139.095 387.587 138.94 386.105 138.94C384.777 138.94 383.573 139.095 382.523 139.249C382.196 139.336 381.883 139.41 381.586 139.481C380.93 139.638 380.347 139.778 379.836 139.99C379.62 140.08 379.401 140.168 379.185 140.254C378.661 140.464 378.152 140.667 377.737 140.886C377.36 141.183 376.983 141.404 376.639 141.606C376.448 141.718 376.266 141.825 376.1 141.936L378.045 144.776C378.478 145.394 379.25 145.548 379.836 145.24C380.089 145.077 380.352 144.957 380.644 144.824C380.852 144.729 381.075 144.627 381.319 144.499C382.214 144.066 383.573 143.912 385.209 143.912C386.692 143.912 387.896 144.375 388.791 144.962C389.687 145.548 390.15 146.444 390.15 147.648V148.235C389.563 148.081 388.946 148.081 388.359 148.081H385.271C383.758 148.081 382.276 148.358 381.072 148.667C379.867 149.1 378.817 149.563 377.922 150.304C377.026 150.891 376.285 151.786 375.822 152.836C375.39 153.886 375.081 155.059 375.081 156.418C375.081 157.622 375.359 158.826 375.822 159.722C376.254 160.741 376.872 161.513 377.613 162.1C378.354 162.717 379.25 163.149 380.145 163.458C381.041 163.767 382.091 163.921 382.986 163.921C384.623 163.921 385.95 163.613 387.309 163.026ZM388.359 152.681C388.946 152.836 389.563 152.836 390.15 152.836H389.872V155.214C389.872 155.8 389.718 156.263 389.409 156.85C389.1 157.313 388.668 157.746 388.205 158.209C387.89 158.434 387.477 158.642 387.049 158.858C386.889 158.939 386.728 159.02 386.568 159.104C385.981 159.259 385.364 159.413 384.623 159.413C383.264 159.413 382.214 159.104 381.473 158.518C380.732 158.054 380.423 157.313 380.423 156.263C380.423 155.368 380.886 154.472 381.627 153.731C382.368 152.99 383.727 152.681 385.518 152.681H388.359ZM401.359 157.468C400.772 157.035 400.031 157.159 399.568 157.622C399.568 157.622 397.345 160.617 397.376 160.587C398.426 161.791 399.784 162.686 401.575 163.273C403.212 163.86 405.312 164.168 407.411 164.168C408.77 164.168 409.943 164.014 411.148 163.705C412.352 163.273 413.402 162.81 414.297 162.223C415.193 161.606 415.81 160.864 416.397 159.969C416.829 159.073 417.138 158.024 417.138 156.974C417.138 155.924 416.829 154.874 416.552 154.133C416.274 153.392 415.656 152.62 415.069 152.033C414.535 151.499 413.745 151.093 412.933 150.675C412.852 150.634 412.772 150.592 412.692 150.551C411.796 150.088 410.746 149.81 409.542 149.501C407.597 149.038 406.238 148.605 405.342 148.142C404.447 147.864 403.984 147.247 403.984 146.506C403.984 145.919 404.138 145.487 404.725 145.023C405.188 144.591 406.238 144.437 407.566 144.437C408.894 144.437 410.098 144.56 411.148 145.023C411.734 145.147 412.167 145.301 412.63 145.61C413.217 145.888 413.958 145.734 414.421 145.147L416.675 142.152C415.471 141.256 414.267 140.67 412.784 140.206C411.271 139.774 409.635 139.62 407.535 139.62C406.361 139.62 405.312 139.774 404.107 140.083C403.057 140.392 402.008 140.824 401.112 141.442C400.217 142.059 399.445 142.8 398.858 143.696C398.271 144.591 397.962 145.641 397.962 146.845C397.962 147.895 398.24 148.945 398.704 149.686C399.136 150.582 399.753 151.199 400.494 151.786C401.236 152.404 401.977 152.836 402.872 153.145C403.613 153.423 404.509 153.731 405.25 153.886C406.454 154.195 407.504 154.472 408.245 154.781C408.986 154.936 409.573 155.214 410.036 155.522C410.468 155.677 410.777 155.955 410.932 156.263C411.086 156.572 411.086 156.85 411.086 157.159C411.086 157.9 410.623 158.487 409.882 158.796C409.141 159.104 408.091 159.259 406.886 159.259C405.528 159.259 404.2 158.981 403.15 158.518C403.089 158.486 403.028 158.454 402.967 158.421C402.436 158.143 401.885 157.855 401.359 157.468Z" fill="#949494"/>
<path opacity="0.8" fill-rule="evenodd" clip-rule="evenodd" d="M215.22 53.8627H201.693L209.208 16.5154H222.735L215.22 53.8627ZM227.995 13.1373H212.026L214.656 0H230.625L227.995 13.1373ZM234.007 64.3726H220.48L228.746 24.0224H224.05L225.553 16.5154H230.249C233.067 6.38095 240.582 0 251.479 0C254.672 0 258.054 0.563025 261.248 1.68908L259.745 9.57143C256.927 8.2577 254.109 8.07003 251.103 8.07003C246.03 8.07003 244.903 11.6359 244.34 14.8263L243.964 16.5154H253.921L252.418 24.0224H242.273L234.007 64.3726ZM290.367 28.339C290.367 40.1625 279.283 54.6135 263.314 54.6135C255.612 54.6135 247.345 50.86 247.345 42.0392C247.345 31.3418 256.927 15.7647 274.399 15.7647C282.289 15.7647 290.367 19.5182 290.367 28.339ZM333.201 28.339C333.201 40.1625 322.117 54.6135 306.148 54.6135C298.446 54.6135 289.992 50.86 289.992 42.0392C289.992 31.3418 299.573 15.7647 317.045 15.7647C324.935 15.7647 333.201 19.5182 333.201 28.339ZM368.521 53.8628H355.182L356.685 47.1065H355.934C353.679 50.86 348.231 54.6135 340.528 54.6135C335.08 54.6135 331.886 49.7339 331.886 44.8544C331.886 32.8432 343.91 15.9524 357.061 15.9524L362.697 16.5154L365.891 0.750737H379.417L368.521 53.8628ZM275.901 93.6499C289.491 94.7593 302.976 90.516 313.475 81.8264L313.663 82.014L317.608 93.2746L323.62 64.3726H296.379L305.397 71.3166C297.319 79.0112 282.477 84.6415 270.078 83.1401C257.866 81.8264 247.909 73.381 243.776 64.3726H243.024C245.279 78.8236 258.054 92.5238 275.901 93.6499Z" fill="#7E7E7E"/>
<path opacity="0.8" fill-rule="evenodd" clip-rule="evenodd" d="M67.7032 108.518C66.2292 107.737 64.4982 107.053 63.8507 106.805C63.6279 106.643 63.4859 106.536 63.4859 106.536C63.4859 106.536 54.7558 100.238 50.9067 98.6051C50.3469 98.3675 49.727 98.0893 49.0553 97.7878L49.0551 97.7877C45.1082 96.0163 39.3751 93.4434 33.5667 93.6079C28.7846 93.7432 25.6342 94.5557 24.1854 94.9294L24.1853 94.9294C24.0082 94.9751 23.8565 95.0142 23.7304 95.0448C22.3581 95.3767 21.4405 95.7672 22.944 96.4814C23.2517 96.6276 24.1732 97.1659 25.4384 97.9049C26.2427 98.3748 27.186 98.9259 28.1987 99.5088C32.0047 101.7 36.7912 104.342 38.8713 104.822C40.8628 105.281 44.1432 105.956 48.3344 105.867C53.1175 105.765 55.4439 107.823 55.9143 108.574C55.0579 107.348 51.7985 106.362 47.4512 106.633C43.2671 106.894 39.9038 106.611 37.9454 106.024C34.1076 104.873 29.995 103.145 26.537 101.513C25.1149 101.95 24.2379 102.316 23.7063 102.544C22.4998 103.059 21.3708 103.985 23.0629 104.466C23.3187 104.539 24.0264 104.779 25.0144 105.114C28.6989 106.363 36.2827 108.934 38.8799 109.09C40.752 109.203 43.8231 109.314 47.6048 108.595C51.8837 107.781 54.1121 109.553 54.6352 110.239C53.299 112.286 52.4244 114.666 52.6745 117.312C42.2392 115.456 36.5432 114.197 32.8585 113.383L32.8585 113.383C31.0197 112.977 29.6818 112.681 28.5058 112.477C22.3303 111.407 14.4856 116.683 13.5236 123.217C12.9767 126.93 13.9159 130.398 16.1527 133.607C17.9211 136.144 20.0884 138.432 21.3555 139.769L21.3555 139.769C21.8627 140.305 22.2256 140.688 22.361 140.874C22.5948 141.302 22.5892 142.275 22.5842 143.15C22.5827 143.408 22.5813 143.657 22.5861 143.882C22.6094 144.99 23.9915 145.986 24.7963 146.059C25.2758 146.103 34.5378 149.021 34.5378 149.021L48.2592 153.281C48.2592 153.281 48.4676 152.325 48.5091 151.922C48.6142 150.899 47.8419 148.373 44.6266 147.429C41.3654 146.44 39.9094 146.002 38.9898 145.726C38.5747 145.602 38.2689 145.51 37.9557 145.415C37.5856 145.302 37.6453 145.263 37.9875 145.037C38.1468 144.931 38.3672 144.785 38.6339 144.573C40.0674 143.346 41.2959 141.692 41.9236 140.346C44.7239 134.341 41.1996 128.994 41.1996 128.994C41.1996 128.994 43.3993 131.324 44.2257 135.397C45.2582 140.485 41.8381 144.522 41.8381 144.522L43.8791 145.119C43.8791 145.119 57.0623 131.728 58.3501 130.283C59.4371 129.062 61.3282 128.292 62.2895 127.977C65.8059 126.948 70.203 124.961 71.3213 124.248C72.4102 123.553 73.7379 121.145 74.1243 120.444L74.1535 120.391C74.4972 119.768 74.9482 118.947 75.0359 118.02C75.0666 117.694 73.1871 115.166 73.1871 115.166C73.1871 115.166 70.1809 110.038 67.7032 108.518ZM194.426 106.828C194.426 108.664 192.951 110.152 191.13 110.152C189.309 110.152 187.833 108.664 187.833 106.828C187.833 104.992 189.309 103.504 191.13 103.504C192.951 103.504 194.426 104.992 194.426 106.828ZM80.3732 103.511H87.19V132.719H102.05V139.283H80.3732V103.511ZM109.07 125.788C109.025 130.037 111.893 133.098 115.945 133.127C120.022 133.157 122.893 130.18 122.912 125.905C122.932 121.61 120.112 118.635 116.017 118.631C111.96 118.627 109.114 121.559 109.07 125.788ZM102.648 125.859C102.646 118.371 108.443 112.657 116.013 112.684C123.658 112.711 129.337 118.337 129.338 125.884C129.34 133.399 123.609 139.057 115.989 139.062C108.415 139.067 102.649 133.361 102.648 125.859ZM150.853 125.981C150.799 130.214 147.944 133.156 143.892 133.127C139.84 133.098 136.973 130.037 137.018 125.788C137.062 121.559 139.908 118.627 143.965 118.631C148.03 118.636 150.833 121.572 150.853 125.818L150.853 125.867V125.874C150.853 125.91 150.853 125.945 150.853 125.981ZM150.847 114.477C148.864 113.345 146.528 112.692 143.96 112.684C136.39 112.657 130.594 118.37 130.595 125.859C130.596 133.361 136.362 139.067 143.937 139.062C146.512 139.06 148.863 138.4 150.859 137.253C150.859 139 150.86 140.102 150.86 140.102C150.841 144.378 147.969 147.346 143.892 147.346C138.657 147.346 136.354 142.229 136.354 142.229L131.558 145.166C131.558 145.166 134.314 153.281 143.937 153.281C151.556 153.275 157.287 147.618 157.286 140.103V112.664H150.847L150.847 114.477ZM171.84 133.127C175.891 133.156 178.746 130.215 178.801 125.983C178.8 125.946 178.801 125.909 178.801 125.872L178.801 125.816C178.78 121.571 175.977 118.636 171.913 118.632C167.855 118.627 165.01 121.559 164.965 125.788C164.92 130.037 167.788 133.098 171.84 133.127ZM171.908 112.684C174.475 112.692 176.812 113.345 178.795 114.477L178.794 112.664H185.234V140.103C185.235 147.618 179.504 153.275 171.885 153.281C162.261 153.281 159.506 145.166 159.506 145.166L164.302 142.229C164.302 142.229 166.604 147.346 171.84 147.346C175.917 147.346 178.788 144.378 178.808 140.102C178.808 140.102 178.807 139 178.806 137.253C176.811 138.4 174.46 139.06 171.885 139.062C164.31 139.067 158.544 133.361 158.543 125.859C158.541 118.37 164.338 112.657 171.908 112.684ZM187.834 138.682H194.427V112.664H187.834V138.682ZM29.4196 152.157C28.2842 151.487 28.5547 150.245 29.3346 149.778C29.8852 149.516 30.4178 149.742 30.4178 149.742L33.8123 150.821C33.8123 150.821 30.4273 152.692 29.4196 152.157Z" fill="#7E7E7E"/>
<path opacity="0.75" fill-rule="evenodd" clip-rule="evenodd" d="M154.067 200.212C153.481 199.696 152.86 199.228 152.222 198.822C150.733 197.875 149.22 197.296 147.721 197.101C144.815 196.725 141.371 197.413 138.732 198.9C137.885 199.377 137.107 199.946 136.419 200.592C134.029 202.834 132.733 204.936 132.733 209.61V236.762H139.617L139.618 211.088C139.618 210.473 139.618 209.857 139.618 209.243C139.619 208.586 139.633 207.993 139.803 207.388C140.081 206.407 140.696 205.491 141.538 204.807C141.919 204.497 142.329 204.243 142.759 204.052C145.436 202.941 148.366 203.591 150.659 205.785C153.729 202.927 154.881 201.855 155.323 201.448C154.958 201.043 154.216 200.345 154.067 200.212ZM78.9021 197.028C82.9659 197.028 86.6429 198.308 89.2578 200.632C91.7622 202.858 93.3141 205.169 93.3162 209.807L93.3138 236.761H85.9837L85.9824 209.807C85.9824 206.262 82.8729 203.485 78.9031 203.485C74.9337 203.485 71.825 206.262 71.825 209.807L71.8237 236.761H64.4921L64.4914 209.807C64.4914 206.262 61.3815 203.485 57.4124 203.485C53.4419 203.485 50.3334 206.262 50.3334 209.807L50.332 236.761H43.001L43 209.807C43 205.169 44.552 202.858 47.0563 200.632C49.6713 198.308 53.3489 197.028 57.412 197.028C61.3906 197.028 65.2249 198.501 67.9322 201.069L68.1565 201.281L68.3812 201.069C71.0886 198.501 74.9232 197.028 78.9021 197.028ZM112.576 197.028C116.747 197.028 120.265 198.26 122.751 200.592C125.335 203.016 126.437 205.713 126.438 209.61V224.826C126.438 228.383 124.939 231.626 122.218 233.957C119.621 236.182 116.147 237.408 112.437 237.408C108.717 237.408 105.271 236.345 102.734 234.417C99.8764 232.246 98.3665 229.18 98.3665 225.55C98.3665 222.12 99.7823 219.264 102.574 217.06C104.829 215.28 107.887 214.001 111.668 213.258L119.553 211.691V209.609C119.553 209.263 119.535 208.927 119.499 208.612L119.498 208.596C119.494 206.086 117.818 204.809 116.411 204.18L116.38 204.169C109.556 201.917 104.614 206.23 102.806 208.188L102.79 208.205L99.7697 202.897C101.674 200.989 105.632 197.028 112.576 197.028ZM117.723 229.5C118.903 228.296 119.553 226.634 119.553 224.825V217.587L119.163 217.67C118.485 217.813 116.565 218.202 115.745 218.368L115.337 218.451C111.637 219.208 107.618 220.413 105.857 223.609C104.863 225.416 105.062 227.675 106.352 229.233C108.009 231.233 110.832 231.531 112.367 231.531C114.571 231.531 116.423 230.828 117.723 229.5ZM204.545 202.897C206.449 200.989 210.408 197.028 217.352 197.028C221.522 197.028 225.04 198.26 227.528 200.592C229.94 202.855 231.214 205.973 231.214 209.61V224.826C231.214 228.384 229.715 231.627 226.995 233.958C224.397 236.182 220.924 237.408 217.213 237.408C213.493 237.408 210.047 236.346 207.509 234.418C204.652 232.247 203.142 229.181 203.142 225.55C203.142 222.121 204.558 219.264 207.351 217.06C209.604 215.281 212.663 214.002 216.444 213.258L224.329 211.691V209.61C224.329 209.263 224.311 208.928 224.275 208.613L224.275 208.596C224.269 206.086 222.594 204.81 221.187 204.18L221.156 204.169C214.333 201.917 209.39 206.23 207.582 208.188L207.567 208.205L204.545 202.897ZM222.498 229.501C223.678 228.296 224.328 226.635 224.328 224.826V217.588L223.938 217.671C223.851 217.689 223.745 217.712 223.622 217.737C223.454 217.772 223.256 217.812 223.042 217.856C222.456 217.976 221.746 218.12 221.173 218.236L220.507 218.372L220.112 218.452C216.412 219.209 212.393 220.413 210.633 223.609C209.638 225.417 209.836 227.676 211.127 229.233C212.784 231.234 215.608 231.532 217.142 231.532C219.346 231.532 221.198 230.829 222.498 229.501ZM191.653 215.549C189.88 214.604 188.033 213.909 185.976 213.161L185.674 213.052L185.66 213.046C184.338 212.567 182.972 212.071 181.709 211.432C180.108 210.624 179.216 209.74 178.902 208.651L178.892 208.617C178.616 207.611 178.845 206.532 179.508 205.726C180.129 204.969 181.092 204.384 182.371 203.989C182.936 203.814 183.532 203.688 184.14 203.615C186.337 203.352 188.602 203.746 190.686 204.754C192.084 205.429 193.398 206.358 194.591 207.512C194.615 207.535 194.717 207.636 194.835 207.755C194.995 207.917 195.185 208.112 195.25 208.188L195.266 208.205L195.276 208.188C195.297 208.15 198.112 203.206 198.288 202.897C196.381 200.988 192.424 197.028 185.48 197.028C181.186 197.028 177.296 198.398 174.809 200.787C172.22 203.274 171.21 206.964 172.171 210.414C172.904 213.046 174.999 215.396 178.069 217.035C179.99 218.06 182.1 218.845 183.925 219.501L184.157 219.585L184.184 219.594C185.774 220.166 187.417 220.756 188.862 221.654C190.574 222.718 191.442 224.095 191.442 225.747C191.442 228.022 189.585 229.619 187.578 230.493C185.343 231.467 182.745 231.153 180.447 230.466C177.35 229.558 174.22 226.413 174.133 226.325L174.132 226.324L171.027 231.541C172.934 233.452 176.892 237.408 183.831 237.408C184.393 237.408 184.966 237.382 185.538 237.332L185.889 237.301V237.309L185.902 237.308C188.971 236.998 191.744 235.965 193.921 234.32C196.761 232.174 198.325 229.13 198.325 225.747C198.325 223.318 197.645 221.114 196.358 219.374C195.276 217.912 193.738 216.661 191.653 215.549ZM159.105 197.685H165.989V236.759H159.105V197.685Z" fill="#7E7E7E"/>
</svg>
