<svg width="239" height="40" viewBox="0 0 239 40" fill="none" xmlns="http://www.w3.org/2000/svg">
<path fill-rule="evenodd" clip-rule="evenodd" d="M1.99344 11.4106C0.66448 13.883 0 16.7064 0 19.8808C0 23.0857 0.66448 25.9396 1.99344 28.4425C3.3533 30.9149 5.26948 32.8531 7.74196 34.2571C10.2144 35.6307 13.0578 36.3175 16.272 36.3175C20.3516 36.3175 23.7822 35.2491 26.5637 33.1125C29.3453 30.9454 31.1378 28.0152 31.9414 24.3219H22.1596C21.5724 25.5428 20.7534 26.4738 19.7026 27.1147C18.6827 27.7557 17.4928 28.0762 16.1329 28.0762C14.0313 28.0762 12.347 27.3437 11.0798 25.8786C9.84357 24.3829 9.22545 22.3837 9.22545 19.8808C9.22545 17.4084 9.84357 15.4397 11.0798 13.9746C12.347 12.4789 14.0313 11.7311 16.1329 11.7311C17.4928 11.7311 18.6827 12.0516 19.7026 12.6926C20.7534 13.3336 21.5724 14.2645 22.1596 15.4854H31.9414C31.1378 11.7921 29.3453 8.87719 26.5637 6.74058C23.7822 4.57344 20.3516 3.48987 16.272 3.48987C13.0578 3.48987 10.2144 4.1919 7.74196 5.59596C5.26948 6.9695 3.3533 8.90772 1.99344 11.4106ZM84.0725 24.2377L90.8372 36.3174H99.7796L92.2735 23.6451C94.652 22.9461 96.4436 21.7609 97.6482 20.0895C98.8838 18.4181 99.5016 16.5188 99.5016 14.3915C99.5016 12.5074 99.0537 10.8056 98.1579 9.28611C97.2621 7.73625 95.903 6.52068 94.0805 5.63938C92.289 4.75809 90.1113 4.31745 87.5475 4.31745H74.2497V36.3174H82.1728V24.2377H84.0725ZM87.0841 18.722H82.1728V10.7904H87.0841C88.5359 10.7904 89.6171 11.1399 90.3275 11.8388C91.0688 12.5378 91.4395 13.495 91.4395 14.7106C91.4395 15.987 91.0688 16.9746 90.3275 17.6736C89.6171 18.3725 88.5359 18.722 87.0841 18.722ZM112.398 36.3174V4.31745H104.475V36.3174H112.398ZM141.539 4.31745V10.5625H132.92V36.3174H124.997V10.5625H116.379V4.31745H141.539ZM155.338 24.2377L162.102 36.3174H171.045L163.539 23.6451C165.917 22.9461 167.709 21.7609 168.913 20.0895C170.149 18.4181 170.767 16.5188 170.767 14.3915C170.767 12.5074 170.319 10.8056 169.423 9.28611C168.527 7.73625 167.168 6.52068 165.346 5.63938C163.554 4.75809 161.376 4.31745 158.813 4.31745H145.515V36.3174H153.438V24.2377H155.338ZM158.349 18.722H153.438V10.7904H158.349C159.801 10.7904 160.882 11.1399 161.593 11.8388C162.334 12.5378 162.705 13.495 162.705 14.7106C162.705 15.987 162.334 16.9746 161.593 17.6736C160.882 18.3725 159.801 18.722 158.349 18.722ZM195.988 30.665L189.991 14.3915L181.903 36.3174H173.609L185.378 4.31745H194.552L206.321 36.3174H197.934L195.988 30.665ZM231.077 36.3174H239V4.31745H231.077V24.1465L217.826 4.31745H209.902V36.3174H217.826V16.5796L231.077 36.3174Z" fill="black"/>
<path fill-rule="evenodd" clip-rule="evenodd" d="M49.0948 0H57.2582V4.96288C59.3734 5.53038 61.3088 6.52826 62.9618 7.85524L67.5502 5.63528L71.1458 12.8627L67.7594 14.5011C68.3596 16.1307 68.6869 17.8894 68.6869 19.7235C68.6869 21.9458 68.2063 24.0574 67.3421 25.9628L71.4478 29.6392L65.9602 35.5993L62.1584 32.1951C59.6445 33.959 56.5745 35.0022 53.2582 35.019L52.1804 40L44.1968 38.3198L45.3613 32.9385C43.4947 31.8627 41.8766 30.4133 40.6123 28.6943L34.9641 29.8233L33.3423 21.9334L37.7242 21.0574C37.6857 20.6178 37.6661 20.1729 37.6661 19.7235C37.6661 17.6589 38.0809 15.6899 38.8327 13.893L34.8089 10.6989L39.9276 4.42771L43.8237 7.52037C45.3782 6.35987 47.1614 5.4816 49.0948 4.96288V0ZM49.0948 16.9058V11.0498C45.7804 12.5692 43.4825 15.8817 43.4825 19.7235C43.4825 25.0032 47.8226 29.2833 53.1765 29.2833C58.5303 29.2833 62.8705 25.0032 62.8705 19.7235C62.8705 15.8817 60.5725 12.5692 57.2582 11.0498V16.9058L53.1765 19.7235L49.0948 16.9058Z" fill="#001F51"/>
</svg>
